<?xml version="1.0" standalone="no"?>
<!DOCTYPE svg PUBLIC "-//W3C//DTD SVG 20010904//EN"
 "http://www.w3.org/TR/2001/REC-SVG-20010904/DTD/svg10.dtd">
<svg version="1.0" xmlns="http://www.w3.org/2000/svg"
 width="128.000000pt" height="128.000000pt" viewBox="0 0 128.000000 128.000000" fill="#000000"
 preserveAspectRatio="xMidYMid meet">

<g transform="translate(0.000000,128.000000) scale(0.100000,-0.100000)"
 stroke="none">
<path d="M505 1131 c-224 -64 -375 -264 -375 -496 0 -285 230 -515 515 -515
285 0 515 230 515 515 0 341 -329 590 -655 496z m260 -56 c84 -22 147 -60 209
-125 61 -64 90 -114 111 -197 43 -166 -7 -338 -133 -453 -290 -267 -762 -59
-762 335 0 70 21 157 51 217 30 58 119 150 178 181 101 55 233 71 346 42z"/>
<path d="M506 1050 c-109 -35 -198 -112 -251 -217 -36 -73 -48 -135 -43 -226
13 -233 197 -407 433 -407 196 0 361 120 417 303 40 133 12 294 -70 402 -106
139 -311 201 -486 145z m312 -89 c72 -39 119 -88 159 -163 26 -49 28 -62 28
-163 0 -106 -1 -112 -34 -173 -39 -72 -88 -120 -163 -159 -49 -26 -62 -28
-163 -28 -106 0 -112 1 -173 34 -75 41 -125 94 -159 168 -78 170 -18 381 134
470 78 46 111 53 213 50 86 -2 101 -6 158 -36z"/>
<path d="M505 649 c-72 -60 -141 -121 -155 -134 -25 -25 -25 -25 -6 -59 10
-19 30 -46 45 -60 l27 -26 114 94 114 94 110 -98 c106 -94 112 -97 130 -82 22
20 76 92 76 102 0 9 -307 280 -317 280 -4 -1 -66 -50 -138 -111z"/>
</g>
</svg>
