<?xml version="1.0" standalone="no"?>
<!DOCTYPE svg PUBLIC "-//W3C//DTD SVG 20010904//EN"
 "http://www.w3.org/TR/2001/REC-SVG-20010904/DTD/svg10.dtd">
<svg version="1.0" xmlns="http://www.w3.org/2000/svg"
 width="2000.000000pt" height="570.000000pt" viewBox="0 0 2000.000000 570.000000" fill="#000000"
 preserveAspectRatio="xMidYMid meet">

<g transform="translate(0.000000,570.000000) scale(0.100000,-0.100000)"
 stroke="none">
<path d="M9797 5675 c-439 -83 -777 -398 -895 -833 -24 -89 -26 -113 -26 -287
0 -163 3 -201 22 -268 59 -215 148 -371 297 -522 152 -154 316 -250 513 -302
131 -35 364 -43 496 -19 441 83 780 402 898 846 14 53 21 120 25 230 4 133 2
170 -17 260 -89 435 -400 763 -830 877 -122 32 -360 41 -483 18z m420 -141
c180 -37 340 -122 475 -252 140 -135 225 -279 275 -471 22 -80 26 -119 27
-241 1 -148 -8 -211 -46 -330 -102 -320 -371 -565 -715 -652 -72 -19 -115 -23
-238 -23 -132 1 -162 4 -247 27 -287 80 -517 264 -640 513 -76 153 -103 275
-102 465 1 122 5 161 27 241 50 189 135 337 269 465 96 92 168 141 275 190
194 89 423 113 640 68z"/>
<path d="M9873 5509 c-394 -51 -696 -321 -805 -717 -17 -63 -21 -105 -21 -232
0 -127 4 -169 21 -232 104 -379 368 -632 742 -710 77 -16 119 -19 225 -15 258
11 454 91 633 261 216 205 323 516 283 820 -58 435 -371 756 -801 821 -103 16
-179 17 -277 4z m333 -169 c44 -11 122 -41 174 -67 80 -40 110 -62 191 -143
86 -85 102 -107 147 -200 28 -58 58 -134 67 -170 51 -221 15 -451 -100 -636
-197 -315 -589 -450 -954 -328 -117 39 -205 96 -308 199 -80 80 -97 105 -141
196 -70 145 -87 216 -86 369 0 218 66 391 208 546 200 220 505 309 802 234z"/>
<path d="M9651 4555 c-184 -157 -339 -289 -345 -295 -6 -6 -3 -24 10 -52 25
-56 126 -190 159 -212 30 -19 -4 -43 275 189 80 66 168 139 196 162 l50 42
244 -214 243 -214 28 19 c36 26 96 99 148 179 33 52 39 67 29 77 -84 80 -685
604 -693 603 -5 0 -160 -128 -344 -284z"/>
<path d="M3870 3575 l0 -95 2295 0 2295 0 0 95 0 95 -2295 0 -2295 0 0 -95z"/>
<path d="M11540 3575 l0 -95 2295 0 2295 0 0 95 0 95 -2295 0 -2295 0 0 -95z"/>
<path d="M145 2901 c-49 -12 -87 -34 -108 -63 -19 -25 -19 -28 -3 -52 9 -14
35 -36 59 -48 l42 -23 9865 0 9865 0 41 22 c43 23 57 37 67 66 11 31 -49 82
-111 96 -60 13 -19664 15 -19717 2z"/>
<path d="M9165 2189 c-396 -31 -654 -253 -672 -579 -9 -173 33 -286 147 -393
114 -108 220 -151 612 -253 308 -79 383 -109 459 -183 68 -67 84 -112 76 -215
-17 -207 -184 -326 -477 -343 -261 -14 -498 50 -685 186 -38 28 -73 51 -77 51
-4 0 -29 -41 -54 -92 l-46 -91 24 -19 c212 -170 459 -248 778 -248 423 0 712
178 776 478 47 223 -26 405 -210 520 -103 65 -218 104 -566 192 -196 50 -297
87 -377 139 -95 61 -133 132 -133 245 0 199 124 334 352 382 93 20 322 14 418
-11 91 -23 252 -103 333 -165 38 -29 72 -48 77 -44 4 5 26 48 48 96 l40 87
-41 34 c-154 126 -368 210 -566 223 -48 3 -97 6 -111 8 -14 1 -70 -1 -125 -5z"/>
<path d="M13178 2189 c-526 -35 -848 -410 -875 -1019 -13 -316 57 -592 201
-795 134 -187 360 -320 605 -356 114 -16 322 -6 431 21 364 90 610 378 687
804 22 123 22 388 0 518 -85 495 -395 795 -857 826 -52 4 -139 4 -192 1z m270
-225 c352 -72 542 -374 542 -859 0 -302 -71 -527 -215 -682 -73 -79 -158 -133
-270 -170 -71 -24 -96 -27 -225 -27 -169 0 -232 13 -352 76 -134 69 -253 214
-309 375 -72 208 -84 518 -29 750 67 284 239 471 486 532 100 25 266 27 372 5z"/>
<path d="M19055 2189 c-216 -14 -391 -86 -516 -211 -112 -111 -159 -231 -159
-404 0 -128 23 -209 83 -291 106 -143 250 -212 670 -318 246 -62 342 -95 414
-141 103 -66 145 -163 123 -286 -36 -198 -191 -300 -480 -315 -121 -6 -246 6
-358 33 -88 21 -251 100 -333 161 l-65 50 -48 -89 c-26 -49 -45 -95 -43 -103
9 -21 127 -101 213 -144 180 -89 376 -126 624 -118 268 9 447 73 586 212 110
109 155 222 155 387 0 245 -127 390 -430 489 -68 22 -203 60 -300 85 -292 75
-401 118 -480 189 -123 112 -113 345 21 471 58 55 99 78 188 106 66 20 95 23
240 23 141 0 176 -4 245 -23 107 -31 223 -88 317 -156 42 -31 78 -56 80 -56 2
0 24 41 48 91 l45 91 -54 49 c-75 67 -250 153 -376 185 -117 29 -270 42 -410
33z"/>
<path d="M72 1103 l3 -1068 657 -3 658 -2 0 105 0 105 -532 2 -533 3 -3 963
-2 962 -125 0 -125 0 2 -1067z"/>
<path d="M1622 1418 l4 -753 26 -98 c42 -154 89 -237 188 -338 70 -71 100 -94
170 -127 145 -70 233 -86 460 -86 178 0 203 3 291 26 327 89 507 312 549 683
6 52 10 373 10 768 l0 677 -125 0 -124 0 -3 -737 c-4 -724 -4 -739 -26 -816
-30 -109 -74 -187 -143 -252 -63 -60 -126 -94 -229 -122 -90 -24 -319 -24
-409 1 -155 42 -265 130 -326 258 -68 144 -68 134 -72 941 l-4 727 -120 0
-120 0 3 -752z"/>
<path d="M4083 1118 c-254 -579 -465 -1061 -469 -1071 -6 -16 2 -17 121 -15
l127 3 116 272 117 272 560 1 560 0 117 -273 117 -272 125 -3 c69 -1 126 -1
126 0 0 2 -211 483 -468 1068 l-468 1065 -110 3 -109 2 -462 -1052z m806 218
c127 -296 231 -540 231 -542 0 -2 -210 -4 -466 -4 -440 0 -466 1 -459 18 23
60 459 1071 461 1069 2 -1 107 -245 233 -541z"/>
<path d="M6020 1100 l0 -1070 115 0 115 0 2 816 3 816 345 -646 345 -646 89 2
89 3 341 647 c188 356 345 650 348 653 4 4 4 -365 1 -819 l-6 -826 116 0 117
0 0 1070 0 1070 -102 0 -103 -1 -395 -766 c-217 -421 -399 -765 -404 -765 -5
0 -189 345 -409 766 l-400 766 -104 0 -103 0 0 -1070z"/>
<path d="M10440 1100 l0 -1070 125 0 125 0 0 439 0 439 388 4 c358 4 393 6
465 26 222 61 378 209 433 412 28 102 26 303 -4 400 -73 233 -250 371 -526
409 -46 7 -263 11 -542 11 l-464 0 0 -1070z m1008 845 c164 -39 260 -133 293
-287 6 -28 9 -97 7 -153 -4 -82 -10 -112 -32 -160 -32 -72 -94 -138 -158 -171
-95 -48 -146 -54 -520 -54 l-348 0 0 420 0 420 348 0 c271 0 361 -4 410 -15z"/>
<path d="M14700 1101 l0 -1071 120 0 120 0 0 455 0 455 213 0 c116 0 246 -5
287 -10 106 -14 190 -57 243 -125 22 -29 124 -211 227 -404 103 -194 191 -356
197 -362 5 -5 65 -8 140 -7 l131 3 -145 270 c-255 476 -267 498 -315 550 -26
28 -72 65 -103 82 l-57 30 73 17 c41 9 111 35 157 57 210 104 314 302 299 569
-13 236 -110 390 -302 480 -154 73 -158 73 -752 77 l-533 4 0 -1070z m1044
844 c143 -30 243 -113 282 -234 25 -75 25 -235 1 -307 -51 -149 -164 -229
-359 -254 -45 -5 -228 -10 -405 -10 l-323 0 0 410 0 410 368 0 c282 0 383 -4
436 -15z"/>
<path d="M16490 2065 l0 -105 370 0 370 0 0 -965 0 -965 125 0 125 0 0 965 0
965 375 0 375 0 0 105 0 105 -870 0 -870 0 0 -105z"/>
</g>
</svg>
